<svg width="124" height="103" viewBox="0 0 124 103" fill="none" xmlns="http://www.w3.org/2000/svg">
<path d="M0 102.631L27.5 0H78.3871C101.401 0 118.151 21.8293 112.195 44.0586L96.5 102.631H0Z" fill="#0C0C0C"/>
<mask id="mask0_20_775" style="mask-type:alpha" maskUnits="userSpaceOnUse" x="0" y="0" width="114" height="103">
<path d="M0 102.631L27.5 0H78.3871C101.401 0 118.151 21.8293 112.195 44.0586L96.5 102.631H0Z" fill="#0C0C0C"/>
</mask>
<g mask="url(#mask0_20_775)">
<path d="M98.8161 -8.84639L98.5701 15.7377C98.3751 35.2353 109.994 52.9136 127.97 60.4685L131.165 61.8112C109.807 63.2031 91.738 78.1109 86.3142 98.8156L78.5602 128.416L78.8645 98.0013C79.0861 75.8456 65.7519 55.8025 45.2313 47.4462L49.0519 47.2057C68.9377 45.9537 85.9824 32.5465 91.883 13.5151L98.8161 -8.84639Z" fill="url(#paint0_linear_20_775)" fill-opacity="0.82"/>
<path d="M39.6672 68.7111L39.8315 76.2603C39.9174 80.2052 42.3149 83.7308 45.9521 85.2606L52.1436 87.8647L45.951 88.1688C41.7513 88.3751 38.1293 91.1864 36.8875 95.2036L32.2986 110.05L33.1671 94.6055C33.4046 90.3822 30.9591 86.4662 27.0599 84.8262L21.3923 82.4424L28.101 82.1129C32.0421 81.9194 35.5009 79.4265 36.9308 75.7489L39.6672 68.7111Z" fill="url(#paint1_linear_20_775)" fill-opacity="0.82"/>
</g>
<defs>
<linearGradient id="paint0_linear_20_775" x1="99.3731" y1="-8.74817" x2="75.2891" y2="127.839" gradientUnits="userSpaceOnUse">
<stop stop-color="#C5C1A9"/>
<stop offset="0.5" stop-color="#BFB892"/>
<stop offset="1" stop-color="#787254"/>
</linearGradient>
<linearGradient id="paint1_linear_20_775" x1="39.6672" y1="68.7111" x2="32.3757" y2="110.063" gradientUnits="userSpaceOnUse">
<stop stop-color="#C5C1A9"/>
<stop offset="0.5" stop-color="#BFB892"/>
<stop offset="1" stop-color="#787254"/>
</linearGradient>
</defs>
</svg>
